HIERARCHY
ROOT ui
{
	 OFFSET 0 0 0
	 CHANNELS 3 XPosition YPosition Z Position
	 EndSite
	 {
	 OFFSET 0 -1 0
	 }
}
ROOT li
{
	 OFFSET 0 0 0
	 CHANNELS 3 XPosition YPosition Z Position
	 EndSite
	 {
	 OFFSET 0 -1 0
	 }
}
ROOT ul
{
	 OFFSET 0 0 0
	 CHANNELS 3 XPosition YPosition Z Position
	 EndSite
	 {
	 OFFSET 0 -1 0
	 }
}
ROOT ll
{
	 OFFSET 0 0 0
	 CHANNELS 3 XPosition YPosition Z Position
	 EndSite
	 {
	 OFFSET 0 -1 0
	 }
}
ROOT tt
{
	 OFFSET 0 0 0
	 CHANNELS 3 XPosition YPosition Z Position
	 EndSite
	 {
	 OFFSET 0 -1 0
	 }
}
ROOT tb
{
	 OFFSET 0 0 0
	 CHANNELS 3 XPosition YPosition Z Position
	 EndSite
	 {
	 OFFSET 0 -1 0
	 }
}
ROOT td
{
	 OFFSET 0 0 0
	 CHANNELS 3 XPosition YPosition Z Position
	 EndSite
	 {
	 OFFSET 0 -1 0
	 }
}
ROOT v
{
	 OFFSET 0 0 0
	 CHANNELS 3 XPosition YPosition Z Position
	 EndSite
	 {
	 OFFSET 0 -1 0
	 }
}
ROOT bn
{
	 OFFSET 0 0 0
	 CHANNELS 3 XPosition YPosition Z Position
	 EndSite
	 {
	 OFFSET 0 -1 0
	 }
}
MOTION
Frames: 26
Frame Time: 0.002
0.0019666709899902345	0.0019720380306243895	0		0.49042864990234375	-2.38132958984375	0		-0.9940733642578125	0.11756726837158203	0		-0.7453011474609375	-2.344669921875	0		1.5947672119140626	-0.4917843627929688	0		3.3387822265625	-0.03380962371826172	0		4.72282568359375	-0.03474715423583984	0		5.590302734375	0.13277700805664064	0		-0.2693058166503906	5.88453076171875	0		
0.008560456275939942	0.008424942970275878	0		0.4841716613769531	-2.369952392578125	0		-0.9185108642578125	0.11577397155761719	0		-0.752544189453125	-2.332819091796875	0		1.6171385498046875	-0.49007424926757814	0		3.3472001953125	-0.04662878799438477	0		4.72234228515625	-0.03700622177124024	0		5.59988232421875	0.13010169982910155	0		-0.14745947265625	5.89506787109375	0		
0.00105548894405365	0.0010268349647521973	0		0.5057970275878906	-2.377804931640625	0		-0.9239391479492187	0.11269540405273437	0		-0.75788525390625	-2.33796728515625	0		1.61348876953125	-0.49409722900390624	0		3.37192626953125	-0.02854667282104492	0		4.7218857421875	-0.039191116333007814	0		5.60357080078125	0.13655856323242188	0		-0.14575007629394532	5.89466015625	0		
6.436859965324402E-4	5.910059809684753E-4	0		0.47758126831054687	-2.375155517578125	0		-0.9311851196289063	0.1256514129638672	0		-0.759117431640625	-2.338136962890625	0		1.6220096435546876	-0.48418655395507815	0		3.341379150390625	-0.042872692108154295	0		4.71653759765625	-0.03323453521728516	0		5.604041015625	0.11714877319335938	0		-0.14508494567871094	5.89528515625	0		
2.653639912605286E-4	1.832119971513748E-4	0		0.5033775939941406	-2.37899365234375	0		-0.924652587890625	0.11248526763916016	0		-0.762297119140625	-2.3402705078125	0		1.612359130859375	-0.49604507446289064	0		3.331006591796875	-0.04229632568359375	0		4.72106689453125	-0.04326791763305664	0		5.5887822265625	0.12301904296875	0		-0.31077667236328127	5.86760595703125	0		
0.006995374202728271	0.006732600212097168	0		0.45927569580078126	-2.38008447265625	0		-0.9959140014648438	0.11713562774658202	0		-0.747389892578125	-2.341572998046875	0		1.62082861328125	-0.500025146484375	0		3.35453564453125	-0.05497444152832031	0		4.72968994140625	-0.04723015594482422	0		5.6084775390625	0.12066853332519531	0		-0.25912277221679686	5.88080712890625	0		
0.009725188255310059	0.00935225486755371	0		0.5162633666992188	-2.381184814453125	0		-0.9161558227539063	0.11923128509521484	0		-0.7453662719726563	-2.339729736328125	0		1.5974949951171875	-0.489606689453125	0		3.35444970703125	-0.034315441131591795	0		4.72445703125	-0.04092437362670898	0		5.61228369140625	0.12561808776855468	0		-0.12345787048339844	5.901107421875	0		
0.0023864860534667967	0.0021121280193328856	0		0.4754111022949219	-2.3752041015625	0		-0.9204315795898438	0.11521291351318359	0		-0.76326318359375	-2.338653076171875	0		1.63099462890625	-0.49973202514648435	0		3.335979248046875	-0.05335486602783203	0		4.715203125	-0.040440391540527344	0		5.60288916015625	0.10885881042480469	0		-0.13818588256835937	5.893001953125	0		
-8.734819889068603E-4	-0.001138690948486328	0		0.49952474975585937	-2.380887939453125	0		-0.9365613403320312	0.12134078216552735	0		-0.76610498046875	-2.34072119140625	0		1.6106533203125	-0.49920538330078124	0		3.333884033203125	-0.04146234130859375	0		4.71987548828125	-0.049974273681640625	0		5.597779296875	0.1152109603881836	0		-0.13692018127441405	5.8927529296875	0		
-0.0010645910501480102	-0.0013940080404281617	0		0.4807267761230469	-2.38605322265625	0		-0.9258275756835938	0.11217701721191406	0		-0.7668377075195313	-2.340799072265625	0		1.6103468017578124	-0.4998337707519531	0		3.356442138671875	-0.06375104522705079	0		4.7196728515625	-0.05132249069213867	0		5.6025234375	0.1056029052734375	0		-0.2690008544921875	5.8710498046875	0		
-0.0012213369607925414	-0.001622907042503357	0		0.5001606750488281	-2.378616455078125	0		-0.9969091186523438	0.11696810150146485	0		-0.8004022827148437	-2.333483642578125	0		1.5980628662109375	-0.5022615051269531	0		3.339529296875	-0.04248911666870117	0		4.7235751953125	-0.04659020233154297	0		5.58748291015625	0.11237059020996094	0		-0.26792373657226565	5.870876953125	0		
0.005736785888671875	0.005089487075805664	0		0.5006108703613281	-2.376927490234375	0		-0.9210279541015625	0.11505349731445312	0		-0.7639933471679687	-2.335974365234375	0		1.6329007568359375	-0.49818222045898436	0		3.3442080078125	-0.059382843017578124	0		4.7234423828125	-0.0476875114440918	0		5.60737890625	0.11087356567382813	0		-0.13268728637695312	5.89113720703125	0		
0.0015967819690704346	9.547690153121948E-4	0		0.4970586853027344	-2.3821572265625	0		-0.9270414428710938	0.12009778594970703	0		-0.7665147705078125	-2.339003662109375	0		1.612725341796875	-0.49839871215820314	0		3.35334375	-0.04023593521118164	0		4.71436572265625	-0.0465551643371582	0		5.60730419921875	0.1097496566772461	0		-0.13179090881347658	5.8909775390625	0		
-0.001504297971725464	-0.0021705598831176756	0		0.49664276123046874	-2.38239208984375	0		-0.9261859130859375	0.11206106567382812	0		-0.732975341796875	-2.34346484375	0		1.6295369873046874	-0.5030040283203125	0		3.35004248046875	-0.059853790283203125	0		4.7142939453125	-0.04741130828857422	0		5.60215869140625	0.1008232650756836	0		-0.1319759979248047	5.89184716796875	0		
-0.0015443140268325806	-0.002314344882965088	0		0.49629922485351563	-2.382599365234375	0		-1.0012057495117188	0.11295505523681641	0		-0.7692866821289063	-2.341073974609375	0		1.6094468994140625	-0.5021105651855469	0		3.33316796875	-0.046217506408691406	0		4.72322314453125	-0.05026667404174805	0		5.59722998046875	0.108025634765625	0		-0.13027676391601561	5.8907080078125	0		
0.006425075054168701	-0.0035415759086608887	0		0.4799858703613281	-2.385583740234375	0		-0.9211797485351563	0.11494570922851563	0		-0.7576223754882813	-2.3462666015625	0		1.5973509521484375	-0.5042660827636719	0		3.352933837890625	-0.06395600891113282	0		4.7232001953125	-0.05091072845458984	0		5.597224609375	0.10728617858886719	0		-0.26295028686523436	5.8672412109375	0		
0.008563472747802734	0.007317243099212646	0		0.47492977905273437	-2.372681640625	0		-0.9971490478515626	0.11686333465576172	0		-0.7636871948242188	-2.334237548828125	0		1.6154168701171876	-0.49575347900390626	0		3.353203857421875	-0.042382125854492185	0		4.723197265625	-0.051461669921875	0		5.6072353515625	0.10652986145019532	0		-0.262394287109375	5.868150390625	0		
-0.0015439820289611817	-0.0026600239276885988	0		0.4976747741699219	-2.38010888671875	0		-0.9370654296875	0.12108402252197266	0		-0.76993701171875	-2.3412060546875	0		1.6184454345703125	-0.49201815795898435	0		3.334992919921875	-0.06051500701904297	0		4.7142353515625	-0.04981410980224609	0		5.60726025390625	0.10599687194824219	0		-0.12863691711425781	5.8903974609375	0		
-0.001517948031425476	-0.002752713918685913	0		0.4685559387207031	-2.379866943359375	0		-1.0070765991210937	0.1179319076538086	0		-0.7700557250976563	-2.341251220703125	0		1.6292890625	-0.5043488464355469	0		3.33317919921875	-0.047790042877197264	0		4.7142587890625	-0.05019869613647461	0		5.6021923828125	0.09762066650390624	0		-0.14338357543945313	5.8795029296875	0		
-0.0014879920482635499	-0.0028372480869293215	0		0.49543191528320313	-2.383315185546875	0		-0.926110595703125	0.11187105560302735	0		-0.7701377563476562	-2.341298828125	0		1.589310791015625	-0.5030054321289062	0		3.350028564453125	-0.06224828720092773	0		4.7191845703125	-0.05857173919677734	0		5.59322802734375	0.097381591796875	0		-0.14307186889648438	5.87942529296875	0		
-0.0014595769643783569	-0.0029149529933929445	0		0.4523677062988281	-2.38386474609375	0		-0.997021728515625	0.11672626495361328	0		-0.7582556762695313	-2.34650146484375	0		1.615408447265625	-0.4964693298339844	0		3.343322021484375	-0.041356292724609375	0		4.723287109375	-0.0528660774230957	0		5.6073603515625	0.10492959594726563	0		-0.12769898986816405	5.8901611328125	0		
0.00868835735321045	0.006885476112365722	0		0.49840545654296875	-2.3785322265625	0		-0.92101611328125	0.11471221923828125	0		-0.766161865234375	-2.336454345703125	0		1.5954326171875	-0.4953251647949219	0		3.348138916015625	-0.057569496154785155	0		4.71842236328125	-0.04398689270019531	0		5.60738427734375	0.10472499084472656	0		-0.12753766632080077	5.89009228515625	0		
-0.0014286329746246338	-0.0030528459548950196	0		0.4703832092285156	-2.378249267578125	0		-0.921005126953125	0.11465906524658204	0		-0.7682237548828125	-2.33948388671875	0		1.6323682861328126	-0.5008845825195313	0		3.36932373046875	-0.043951801300048825	0		4.72331591796875	-0.05318323135375977	0		5.60739501953125	0.10457889556884765	0		-0.2768523559570312	5.8589267578125	0		
-0.0014377349615097045	-0.0031145288944244387	0		0.49529257202148436	-2.383632080078125	0		-0.9309998779296875	0.11573076629638672	0		-0.7702737426757813	-2.341514892578125	0		1.5984732666015624	-0.49152499389648435	0		3.333253662109375	-0.04857721710205078	0		4.71842138671875	-0.04421352767944336	0		5.60228564453125	0.09654407501220703	0		-0.1425530548095703	5.8791591796875	0		
-0.054466510772705076	-0.0024974908828735353	0		0.44132571411132815	-2.378003173828125	0		-0.926084228515625	0.11161030578613282	0		-0.77030859375	-2.341572021484375	0		1.6092861328125	-0.50372314453125	0		3.32914453125	-0.054586158752441404	0		4.7232734375	-0.05333788299560547	0		5.60735400390625	0.10441767120361328	0		-0.26171206665039065	5.86961767578125	0		
0.001508013963699341	-2.649199962615967E-4	0		0.5061304931640624	-2.389882080078125	0		-0.9970870971679687	0.1164560546875	0		-0.79236962890625	-2.34234912109375	0		1.600255126953125	-0.5016566467285156	0		3.352943603515625	-0.0659320068359375	0		4.70122900390625	-0.05209375	0		5.5872958984375	0.10463984680175781	0		-0.12753748321533204	5.88885498046875	0		
